<svg xmlns="http://www.w3.org/2000/svg" xml:space="preserve" width="800" height="800" viewBox="0 0 512 512"><path d="M106.372 405.628c113.239 26.897 229.969 1.617 310.248-78.661 27.966-27.966 49.251-60.361 63.987-95.485l-176.918-23.169z" style="fill:#85c250"/><path d="M215.7 68.664a296.116 296.116 0 0 0-30.668 26.716c-80.279 80.28-105.558 197.01-78.66 310.249L238.87 296.3z" style="fill:#85c250"/><path d="M368.506 166.663 345.337 12.107c-46.984 8.741-91.278 27.515-129.637 56.556v227.636z" style="fill:#c9d467"/><path d="M495.281 16.719C444.814 4.732 393.655 3.117 345.337 12.108v154.556z" style="fill:#ffce47"/><path d="M495.281 16.719 280.519 231.482h200.087c27.566-65.704 32.202-140.972 14.675-214.763" style="fill:#c9d467"/><path d="M501.42 19.4a11.533 11.533 0 0 0-3.122-5.696 11.537 11.537 0 0 0-5.696-3.122C440.667-1.73 387.638-3.303 338.066 5.886l-.064.012A336.328 336.328 0 0 0 319.88 9.78c-42.341 10.306-81.619 28.819-115.538 54.258-.543.344-1.058.732-1.535 1.158a305.077 305.077 0 0 0-31.143 27.169c-40.213 40.214-68.771 91.465-82.586 148.215-12.838 52.734-13.03 110.184-.606 166.563l-85.08 85.08c-4.524 4.524-4.525 11.859 0 16.384C5.655 510.868 8.62 512 11.585 512s5.93-1.132 8.191-3.393l85.081-85.081c56.38 12.423 113.828 12.231 166.563-.605 56.75-13.815 108.002-42.372 148.215-82.586 28.017-28.017 50.377-61.393 66.035-98.253.32-.604.59-1.238.799-1.9a323.73 323.73 0 0 0 15.752-48.062c13.306-54.656 13.028-114.377-.801-172.72m-149.674 7.795c36.888-5.788 75.737-5.361 115.009 1.667L351.746 143.871zm-163.697 81.553a278.602 278.602 0 0 1 10.891-10.322v33.761c0 6.397 5.186 11.585 11.585 11.585 6.398 0 11.585-5.188 11.585-11.585V79.743c31.568-22.808 67.691-38.981 106.466-48.036v135.334L222.109 273.507v-97.894c0-6.397-5.186-11.585-11.585-11.585-6.398 0-11.585 5.188-11.585 11.585v121.063l-90.777 90.776c-18.979-106.061 10.185-209.001 79.887-278.704m215.203 215.203c-69.701 69.702-172.641 98.866-278.705 79.885l155.594-155.594h177.112c-13.727 27.955-31.812 53.52-54.001 75.709m64.171-98.878H303.311L483.138 45.246c11.305 63.171 5.531 125.233-15.715 179.827" style="fill:#01121c"/></svg>